<?xml version="1.0" encoding="UTF-8" standalone="no"?><!DOCTYPE svg PUBLIC "-//W3C//DTD SVG 1.1//EN" "http://www.w3.org/Graphics/SVG/1.1/DTD/svg11.dtd"><svg width="100%" height="100%" viewBox="0 0 842 596" version="1.1" xmlns="http://www.w3.org/2000/svg" xmlns:xlink="http://www.w3.org/1999/xlink" xml:space="preserve" xmlns:serif="http://www.serif.com/" style="fill-rule:evenodd;clip-rule:evenodd;stroke-linejoin:round;stroke-miterlimit:2;"><g id="Artboard2"><g><g><path d="M113.317,268.296c-0,0 -55.724,-37.85 -23.63,-69.77c41.07,-29.249 70.686,42.527 70.686,42.527c0,-0 8.27,-10.33 17.734,-10.379c7.268,-31.922 28.019,-29.013 30.101,-28.874c3.84,0.357 5.068,4.379 3.649,6.374c-3.226,4.537 -24.545,10.446 -23.003,20.845c1.659,4.764 33.483,1.698 35.071,33.972c0.428,34.968 -46.047,32.572 -46.047,32.572c-0,0 4.932,36.972 -19.198,54.115c-24.131,17.144 -70.527,16.352 -70.527,16.352l-28.489,13.304l14.046,-27.488c0,-0 -6.01,-39.577 10.54,-62.083c16.55,-22.506 29.067,-21.467 29.067,-21.467Zm87.148,-20.698c-3.018,-0.021 -5.484,2.41 -5.506,5.427c-0.021,3.018 2.41,5.484 5.428,5.506c3.017,0.021 5.484,-2.41 5.506,-5.428c0.021,-3.017 -2.411,-5.483 -5.428,-5.505Zm-78.246,30.916l-12.79,5.988l48.052,49.194l6.562,-12.877l-41.824,-42.305Zm-24.393,15.596l-8.28,9.863l46.07,46.903l11.852,-7.202l-49.642,-49.564Zm-13.772,26.228l-0.484,18.375l19.25,18.973l16.677,-1.339l-35.443,-36.009Zm45.116,-53.445l22.776,4.502l0.789,-20.032c-0,-0 -24.674,-67.847 -54.702,-47.207c-28.825,30.462 31.137,62.737 31.137,62.737Z" style="fill:#9810fa;"/></g><g><g><path d="M165.066,400.094c2.017,2.701 -1.591,10.047 -4.768,8.919c-4.969,-1.767 -21.588,-14.889 -25.046,-19.52c-1.858,-2.489 1.376,-9.306 4.303,-8.265c4.969,1.767 22.054,14.236 25.511,18.866Z" style="fill:#9810fa;"/></g><g><path d="M204.607,416.148c2.604,2.296 1.005,10.078 -2.467,10.119c-4.833,0.057 -22.802,-6.491 -26.531,-9.779c-2.697,-2.378 0.557,-9.91 4.151,-9.952c4.834,-0.057 21.117,6.323 24.847,9.612Z" style="fill:#9810fa;"/></g><g><path d="M252.583,422.881c3.332,1.387 4.637,9.765 1.169,10.765c-5.104,1.47 -26.81,0.134 -31.795,-1.941c-3.287,-1.368 -1.537,-9.528 1.885,-10.514c5.104,-1.47 23.756,-0.386 28.741,1.69Z" style="fill:#9810fa;"/></g><g><path d="M298.603,412.762c3.964,0.629 8.317,8.289 5.225,10.848c-3.594,2.975 -21.987,7.765 -26.789,7.004c-3.866,-0.612 -5.039,-9.071 -2.023,-11.567c3.594,-2.975 18.785,-7.045 23.587,-6.285Z" style="fill:#9810fa;"/></g><g><path d="M340.893,398.213c4.005,0.264 9.039,7.495 6.193,10.326c-3.307,3.291 -21.186,9.74 -26.037,9.421c-3.906,-0.256 -5.846,-8.573 -3.071,-11.334c3.307,-3.291 18.064,-8.732 22.915,-8.413Z" style="fill:#9810fa;"/></g><g><path d="M382.558,381.529c3.964,0.629 8.317,8.289 5.224,10.848c-3.593,2.975 -21.986,7.764 -26.789,7.004c-3.865,-0.612 -5.038,-9.071 -2.022,-11.567c3.593,-2.975 18.785,-7.046 23.587,-6.285Z" style="fill:#9810fa;"/></g></g><g><path d="M611.19,176.239c2.916,18.046 11.858,29.88 26.594,36.105c-14.913,1.291 -26.885,10.467 -35.644,28.256c-1.792,-16.184 -10.395,-27.584 -26.962,-35.642c17.773,-3.058 29.813,-12.856 36.012,-28.719Z" style="fill:#f0b100;"/></g><g><g><path d="M223.93,354.062l-0.609,-78.531l16.449,0.339l0,33.552l-1.44,-0c0,-7.872 1.008,-14.472 3.024,-19.8c2.016,-5.328 5.016,-9.36 9,-12.096c3.984,-2.736 8.952,-4.104 14.904,-4.104l0.864,-0c6.048,-0 11.064,1.368 15.048,4.104c3.984,2.736 6.96,6.768 8.928,12.096c1.968,5.328 2.952,11.928 2.952,19.8l-5.04,-0c0,-7.872 1.032,-14.472 3.096,-19.8c2.064,-5.328 5.088,-9.36 9.072,-12.096c3.984,-2.736 8.952,-4.104 14.904,-4.104l0.864,-0c6.048,-0 11.088,1.368 15.12,4.104c4.032,2.736 7.08,6.768 9.144,12.096c2.064,5.328 3.096,11.928 3.096,19.8l0,44.64l-20.016,-0l0,-46.512c0,-4.896 -1.248,-8.808 -3.744,-11.736c-2.496,-2.928 -6.048,-4.392 -10.656,-4.392c-4.608,-0 -8.304,1.512 -11.088,4.536c-2.784,3.024 -4.176,7.08 -4.176,12.168l0,45.936l-20.016,-0l0,-46.512c0,-4.896 -1.248,-8.808 -3.744,-11.736c-2.496,-2.928 -6.048,-4.392 -10.656,-4.392c-4.608,-0 -8.304,1.512 -11.088,4.536c-2.784,3.024 -4.176,7.08 -4.176,12.168l0,45.936l-20.016,-0Z" style="fill:#9810fa;fill-rule:nonzero;"/></g><g><path d="M389.779,356.798c-6.912,-0 -13.008,-1.104 -18.288,-3.312c-5.28,-2.208 -9.744,-5.208 -13.392,-9c-3.648,-3.792 -6.408,-8.088 -8.28,-12.888c-1.872,-4.8 -2.808,-9.792 -2.808,-14.976l-0,-3.024c-0,-5.376 0.984,-10.488 2.952,-15.336c1.968,-4.848 4.8,-9.168 8.496,-12.96c3.696,-3.792 8.184,-6.768 13.464,-8.928c5.28,-2.16 11.232,-3.24 17.856,-3.24c6.624,-0 12.576,1.08 17.856,3.24c5.28,2.16 9.768,5.136 13.464,8.928c3.696,3.792 6.504,8.112 8.424,12.96c1.92,4.848 2.88,9.96 2.88,15.336l-0,3.024c-0,5.184 -0.936,10.176 -2.808,14.976c-1.872,4.8 -4.632,9.096 -8.28,12.888c-3.648,3.792 -8.112,6.792 -13.392,9c-5.28,2.208 -11.328,3.312 -18.144,3.312Zm-0,-17.136c4.896,-0 9.024,-1.08 12.384,-3.24c3.36,-2.16 5.904,-5.088 7.632,-8.784c1.728,-3.696 2.592,-7.896 2.592,-12.6c-0,-4.8 -0.888,-9.048 -2.664,-12.744c-1.776,-3.696 -4.368,-6.624 -7.776,-8.784c-3.408,-2.16 -7.464,-3.24 -12.168,-3.24c-4.704,-0 -8.76,1.08 -12.168,3.24c-3.408,2.16 -6.024,5.088 -7.848,8.784c-1.824,3.696 -2.736,7.944 -2.736,12.744c-0,4.704 0.888,8.904 2.664,12.6c1.776,3.696 4.344,6.624 7.704,8.784c3.36,2.16 7.488,3.24 12.384,3.24Z" style="fill:#9810fa;fill-rule:nonzero;"/></g><g><path d="M481.864,356.259c-6.912,0 -13.008,-1.104 -18.288,-3.312c-5.28,-2.208 -9.744,-5.208 -13.392,-9c-3.648,-3.792 -6.408,-8.088 -8.28,-12.888c-1.872,-4.8 -2.808,-9.792 -2.808,-14.976l-0,-3.024c-0,-5.376 0.984,-10.488 2.952,-15.336c1.968,-4.848 4.8,-9.168 8.496,-12.96c3.696,-3.792 8.184,-6.768 13.464,-8.928c5.28,-2.16 11.232,-3.24 17.856,-3.24c6.624,0 12.576,1.08 17.856,3.24c5.28,2.16 9.768,5.136 13.464,8.928c3.696,3.792 6.504,8.112 8.424,12.96c1.92,4.848 2.88,9.96 2.88,15.336l-0,3.024c-0,5.184 -0.936,10.176 -2.808,14.976c-1.872,4.8 -4.632,9.096 -8.28,12.888c-3.648,3.792 -8.112,6.792 -13.392,9c-5.28,2.208 -11.328,3.312 -18.144,3.312Zm-0,-17.136c4.896,0 9.024,-1.08 12.384,-3.24c3.36,-2.16 5.904,-5.088 7.632,-8.784c1.728,-3.696 2.592,-7.896 2.592,-12.6c-0,-4.8 -0.888,-9.048 -2.664,-12.744c-1.776,-3.696 -4.368,-6.624 -7.776,-8.784c-3.408,-2.16 -7.464,-3.24 -12.168,-3.24c-4.704,0 -8.76,1.08 -12.168,3.24c-3.408,2.16 -6.024,5.088 -7.848,8.784c-1.824,3.696 -2.736,7.944 -2.736,12.744c-0,4.704 0.888,8.904 2.664,12.6c1.776,3.696 4.344,6.624 7.704,8.784c3.36,2.16 7.488,3.24 12.384,3.24Z" style="fill:#9810fa;fill-rule:nonzero;"/></g><g><path d="M584.418,358.295c-6.432,0 -12.096,-1.368 -16.992,-4.104c-4.896,-2.736 -8.736,-6.744 -11.52,-12.024c-2.784,-5.28 -4.32,-11.664 -4.608,-19.152l3.024,0l-0,32.688l-15.84,0l-0,-105.12l20.016,0l-0,52.56l-5.328,8.208c0.384,-8.064 1.992,-14.784 4.824,-20.16c2.832,-5.376 6.648,-9.408 11.448,-12.096c4.8,-2.688 10.224,-4.032 16.272,-4.032c5.376,0 10.272,1.008 14.688,3.024c4.416,2.016 8.208,4.824 11.376,8.424c3.168,3.6 5.592,7.8 7.272,12.6c1.68,4.8 2.52,10.032 2.52,15.696l-0,3.024c-0,5.664 -0.864,10.944 -2.592,15.84c-1.728,4.896 -4.224,9.192 -7.488,12.888c-3.264,3.696 -7.176,6.576 -11.736,8.64c-4.56,2.064 -9.672,3.096 -15.336,3.096Zm-4.464,-16.848c4.32,0 8.088,-1.08 11.304,-3.24c3.216,-2.16 5.736,-5.112 7.56,-8.856c1.824,-3.744 2.736,-8.064 2.736,-12.96c-0,-4.992 -0.912,-9.312 -2.736,-12.96c-1.824,-3.648 -4.344,-6.48 -7.56,-8.496c-3.216,-2.016 -6.984,-3.024 -11.304,-3.024c-3.936,0 -7.56,0.864 -10.872,2.592c-3.312,1.728 -6,4.272 -8.064,7.632c-2.064,3.36 -3.096,7.392 -3.096,12.096l-0,5.76c-0,4.512 1.056,8.352 3.168,11.52c2.112,3.168 4.848,5.616 8.208,7.344c3.36,1.728 6.912,2.592 10.656,2.592Z" style="fill:#9810fa;fill-rule:nonzero;"/></g><g><path d="M670.14,358.393c-6.72,0 -12.6,-1.152 -17.64,-3.456c-5.04,-2.304 -9.216,-5.4 -12.528,-9.288c-3.312,-3.888 -5.808,-8.232 -7.488,-13.032c-1.68,-4.8 -2.52,-9.696 -2.52,-14.688l0,-2.736c0,-5.184 0.84,-10.2 2.52,-15.048c1.68,-4.848 4.176,-9.168 7.488,-12.96c3.312,-3.792 7.416,-6.816 12.312,-9.072c4.896,-2.256 10.56,-3.384 16.992,-3.384c8.448,0 15.528,1.848 21.24,5.544c5.712,3.696 10.008,8.544 12.888,14.544c2.88,6 4.32,12.456 4.32,19.368l0,7.2l-69.264,0l0,-12.24l56.736,0l-6.192,6.048c0,-4.992 -0.72,-9.264 -2.16,-12.816c-1.44,-3.552 -3.624,-6.288 -6.552,-8.208c-2.928,-1.92 -6.6,-2.88 -11.016,-2.88c-4.416,0 -8.16,1.008 -11.232,3.024c-3.072,2.016 -5.4,4.92 -6.984,8.712c-1.584,3.792 -2.376,8.328 -2.376,13.608c0,4.896 0.768,9.24 2.304,13.032c1.536,3.792 3.888,6.768 7.056,8.928c3.168,2.16 7.2,3.24 12.096,3.24c4.896,0 8.88,-0.984 11.952,-2.952c3.072,-1.968 5.04,-4.392 5.904,-7.272l18.432,0c-1.152,5.376 -3.36,10.08 -6.624,14.112c-3.264,4.032 -7.416,7.152 -12.456,9.36c-5.04,2.208 -10.776,3.312 -17.208,3.312Z" style="fill:#9810fa;fill-rule:nonzero;"/></g><g><path d="M757.754,357.326c-6.72,0 -12.6,-1.152 -17.64,-3.456c-5.04,-2.304 -9.216,-5.4 -12.528,-9.288c-3.312,-3.888 -5.808,-8.232 -7.488,-13.032c-1.68,-4.8 -2.52,-9.696 -2.52,-14.688l-0,-2.736c-0,-5.184 0.84,-10.2 2.52,-15.048c1.68,-4.848 4.176,-9.168 7.488,-12.96c3.312,-3.792 7.416,-6.816 12.312,-9.072c4.896,-2.256 10.56,-3.384 16.992,-3.384c8.448,0 15.529,1.848 21.239,5.544c5.71,3.696 10.01,8.544 12.89,14.544c2.88,6 4.32,12.456 4.32,19.368l-0,7.2l-69.265,0l-0,-12.24l56.735,0l-6.19,6.048c-0,-4.992 -0.72,-9.264 -2.16,-12.816c-1.44,-3.552 -3.62,-6.288 -6.553,-8.208c-2.928,-1.92 -6.6,-2.88 -11.016,-2.88c-4.416,0 -8.16,1.008 -11.232,3.024c-3.072,2.016 -5.4,4.92 -6.984,8.712c-1.584,3.792 -2.376,8.328 -2.376,13.608c-0,4.896 0.768,9.24 2.304,13.032c1.536,3.792 3.888,6.768 7.056,8.928c3.168,2.16 7.2,3.24 12.096,3.24c4.896,0 8.88,-0.984 11.952,-2.952c3.073,-1.968 5.043,-4.392 5.903,-7.272l18.43,0c-1.15,5.376 -3.36,10.08 -6.62,14.112c-3.26,4.032 -7.42,7.152 -12.46,9.36c-5.037,2.208 -10.773,3.312 -17.205,3.312Z" style="fill:#9810fa;fill-rule:nonzero;"/></g></g></g></g></svg>