<?xml version="1.0" encoding="UTF-8" standalone="no"?>
<!DOCTYPE svg PUBLIC "-//W3C//DTD SVG 1.1//EN" "http://www.w3.org/Graphics/SVG/1.1/DTD/svg11.dtd">
<svg width="100%" height="100%" viewBox="0 0 1161 811" version="1.1" xmlns="http://www.w3.org/2000/svg" xmlns:xlink="http://www.w3.org/1999/xlink" xml:space="preserve" xmlns:serif="http://www.serif.com/" style="fill-rule:evenodd;clip-rule:evenodd;stroke-linejoin:round;stroke-miterlimit:2;">
    <g transform="matrix(1,0,0,1,-1159.43,-815.332)">
        <g>
            <g transform="matrix(4.16667,0,0,4.16667,-1411.14,525.406)">
                <path d="M669.801,152.581C669.801,152.581 613.81,115.127 645.677,82.98C686.538,53.44 716.663,125.004 716.663,125.004C716.663,125.004 724.859,114.616 734.323,114.5C741.364,82.527 762.135,85.289 764.218,85.413C768.061,85.743 769.317,89.756 767.912,91.761C764.719,96.321 743.442,102.381 745.058,112.769C746.75,117.521 778.552,114.229 780.369,146.491C781.045,181.455 734.554,179.389 734.554,179.389C734.554,179.389 739.748,216.325 715.74,233.639C691.732,250.953 645.331,250.491 645.331,250.491L616.937,263.996L630.788,236.409C630.788,236.409 624.497,196.876 640.887,174.253C657.277,151.63 669.801,152.581 669.801,152.581ZM756.8,131.265C753.782,131.265 751.333,133.714 751.333,136.731C751.333,139.749 753.782,142.198 756.8,142.198C759.817,142.198 762.267,139.749 762.267,136.731C762.267,133.714 759.817,131.265 756.8,131.265ZM678.776,162.735L666.028,168.814L714.428,217.666L720.899,204.742L678.776,162.735ZM654.494,178.504L646.284,188.425L692.686,235L704.486,227.714L654.494,178.504ZM640.908,204.829L640.555,223.207L659.939,242.043L676.606,240.586L640.908,204.829ZM685.644,151.065L708.451,155.405L709.098,135.368C709.098,135.368 683.943,67.698 654.063,88.551C625.454,119.216 685.644,151.065 685.644,151.065Z" style="fill:rgb(152,16,250);"/>
            </g>
            <g transform="matrix(4.16667,0,0,4.16667,-1522.95,597.879)">
                <g transform="matrix(1,0,0,1,0.974519,-0.242063)">
                    <path d="M790.497,213.653C793.846,214.041 796.71,221.708 793.709,223.243C789.013,225.643 768.062,228.719 762.321,228.054C759.236,227.696 756.499,220.664 759.265,219.251C763.961,216.851 784.757,212.988 790.497,213.653Z" style="fill:rgb(152,16,250);"/>
                </g>
                <g transform="matrix(1,0,0,1,49.1506,-12.4279)">
                    <path d="M782.57,206.543C786.004,206.032 790.923,212.271 788.716,214.952C785.644,218.683 769.055,228.199 764.137,228.931C760.581,229.46 756.92,222.117 759.205,219.342C762.277,215.61 777.651,207.274 782.57,206.543Z" style="fill:rgb(152,16,250);"/>
                </g>
                <g transform="matrix(1,0,0,1,87.3038,-37.8161)">
                    <path d="M779.024,200.018C782.232,198.365 789.479,202.768 788.007,206.064C785.841,210.914 770.828,226.647 766.028,229.12C762.863,230.751 757.753,224.153 759.205,220.902C761.371,216.052 774.223,202.491 779.024,200.018Z" style="fill:rgb(152,16,250);"/>
                </g>
                <g transform="matrix(1,0,0,1,117.499,-76.6911)">
                    <path d="M768.312,201.403C771.348,198.778 780.01,200.388 779.973,204.402C779.931,209.067 771.736,226.216 768.059,229.397C765.099,231.958 757.876,227.402 757.912,223.487C757.954,218.822 764.635,204.584 768.312,201.403Z" style="fill:rgb(152,16,250);"/>
                </g>
            </g>
            <g transform="matrix(5.81474,0,0,5.81474,-3014.32,565.848)">
                <path d="M898.355,42.905C900.444,55.836 906.852,64.316 917.411,68.777C906.725,69.702 898.146,76.277 891.87,89.024C890.586,77.427 884.421,69.258 872.55,63.484C885.285,61.293 893.913,54.272 898.355,42.905Z" style="fill:rgb(240,177,0);"/>
            </g>
        </g>
    </g>
</svg>
