<?xml version="1.0" encoding="UTF-8" standalone="no"?>
<!DOCTYPE svg PUBLIC "-//W3C//DTD SVG 1.1//EN" "http://www.w3.org/Graphics/SVG/1.1/DTD/svg11.dtd">
<svg width="100%" height="100%" viewBox="0 0 685 195" version="1.1" xmlns="http://www.w3.org/2000/svg" xmlns:xlink="http://www.w3.org/1999/xlink" xml:space="preserve" xmlns:serif="http://www.serif.com/" style="fill-rule:evenodd;clip-rule:evenodd;stroke-linejoin:round;stroke-miterlimit:2;">
    <g transform="matrix(1,0,0,1,-262.898,-119.374)">
        <g id="Artboard2" transform="matrix(1,0,0,1,-66.7096,440.262)">
            <rect x="66.71" y="-440.262" width="1053.9" height="385.7" style="fill:none;"/>
            <g>
                <g transform="matrix(1,0,0,1,-287.329,-390.47)">
                    <path d="M669.801,152.581C669.801,152.581 613.81,115.127 645.677,82.98C686.538,53.44 716.663,125.004 716.663,125.004C716.663,125.004 724.859,114.616 734.323,114.5C741.364,82.527 762.135,85.289 764.218,85.413C768.061,85.743 769.317,89.756 767.912,91.761C764.719,96.321 743.442,102.381 745.058,112.769C746.75,117.521 778.552,114.229 780.369,146.491C781.045,181.455 734.554,179.389 734.554,179.389C734.554,179.389 739.748,216.325 715.74,233.639C691.732,250.953 645.331,250.491 645.331,250.491L616.937,263.996L630.788,236.409C630.788,236.409 624.497,196.876 640.887,174.253C657.277,151.63 669.801,152.581 669.801,152.581ZM756.8,131.265C753.782,131.265 751.333,133.714 751.333,136.731C751.333,139.749 753.782,142.198 756.8,142.198C759.817,142.198 762.267,139.749 762.267,136.731C762.267,133.714 759.817,131.265 756.8,131.265ZM678.776,162.735L666.028,168.814L714.428,217.666L720.899,204.742L678.776,162.735ZM654.494,178.504L646.284,188.425L692.686,235L704.486,227.714L654.494,178.504ZM640.908,204.829L640.555,223.207L659.939,242.043L676.606,240.586L640.908,204.829ZM685.644,151.065L708.451,155.405L709.098,135.368C709.098,135.368 683.943,67.698 654.063,88.551C625.454,119.216 685.644,151.065 685.644,151.065Z" style="fill:rgb(152,16,250);"/>
                </g>
                <g transform="matrix(1,0,0,1,-314.164,-373.076)">
                    <g transform="matrix(1,0,0,1,0.974519,-0.242063)">
                        <path d="M790.497,213.653C793.846,214.041 796.71,221.708 793.709,223.243C789.013,225.643 768.062,228.719 762.321,228.054C759.236,227.696 756.499,220.664 759.265,219.251C763.961,216.851 784.757,212.988 790.497,213.653Z" style="fill:rgb(152,16,250);"/>
                    </g>
                    <g transform="matrix(1,0,0,1,49.1506,-12.4279)">
                        <path d="M782.57,206.543C786.004,206.032 790.923,212.271 788.716,214.952C785.644,218.683 769.055,228.199 764.137,228.931C760.581,229.46 756.92,222.117 759.205,219.342C762.277,215.61 777.651,207.274 782.57,206.543Z" style="fill:rgb(152,16,250);"/>
                    </g>
                    <g transform="matrix(1,0,0,1,87.3038,-37.8161)">
                        <path d="M779.024,200.018C782.232,198.365 789.479,202.768 788.007,206.064C785.841,210.914 770.828,226.647 766.028,229.12C762.863,230.751 757.753,224.153 759.205,220.902C761.371,216.052 774.223,202.491 779.024,200.018Z" style="fill:rgb(152,16,250);"/>
                    </g>
                    <g transform="matrix(1,0,0,1,117.499,-76.6911)">
                        <path d="M768.312,201.403C771.348,198.778 780.01,200.388 779.973,204.402C779.931,209.067 771.736,226.216 768.059,229.397C765.099,231.958 757.876,227.402 757.912,223.487C757.954,218.822 764.635,204.584 768.312,201.403Z" style="fill:rgb(152,16,250);"/>
                    </g>
                </g>
                <g transform="matrix(1.39554,0,0,1.39554,-672.093,-380.764)">
                    <path d="M898.355,42.905C900.444,55.836 906.852,64.316 917.411,68.777C906.725,69.702 898.146,76.277 891.87,89.024C890.586,77.427 884.421,69.258 872.55,63.484C885.285,61.293 893.913,54.272 898.355,42.905Z" style="fill:rgb(240,177,0);"/>
                </g>
                <g transform="matrix(1,0,0,1,25.1745,-390.727)">
                    <g transform="matrix(1,0,0,1,4,0)">
                        <path d="M523.809,246.477L523.2,167.946L539.649,168.285L539.649,201.837L538.209,201.837C538.209,193.965 539.217,187.365 541.233,182.037C543.249,176.709 546.249,172.677 550.233,169.941C554.217,167.205 559.185,165.837 565.137,165.837L566.001,165.837C572.049,165.837 577.065,167.205 581.049,169.941C585.033,172.677 588.009,176.709 589.977,182.037C591.945,187.365 592.929,193.965 592.929,201.837L587.889,201.837C587.889,193.965 588.921,187.365 590.985,182.037C593.049,176.709 596.073,172.677 600.057,169.941C604.041,167.205 609.009,165.837 614.961,165.837L615.825,165.837C621.873,165.837 626.913,167.205 630.945,169.941C634.977,172.677 638.025,176.709 640.089,182.037C642.153,187.365 643.185,193.965 643.185,201.837L643.185,246.477L623.169,246.477L623.169,199.965C623.169,195.069 621.921,191.157 619.425,188.229C616.929,185.301 613.377,183.837 608.769,183.837C604.161,183.837 600.465,185.349 597.681,188.373C594.897,191.397 593.505,195.453 593.505,200.541L593.505,246.477L573.489,246.477L573.489,199.965C573.489,195.069 572.241,191.157 569.745,188.229C567.249,185.301 563.697,183.837 559.089,183.837C554.481,183.837 550.785,185.349 548.001,188.373C545.217,191.397 543.825,195.453 543.825,200.541L543.825,246.477L523.809,246.477Z" style="fill:rgb(152,16,250);fill-rule:nonzero;"/>
                    </g>
                    <g transform="matrix(1,0,0,1,-8.56741,0)">
                        <path d="M702.225,249.213C695.313,249.213 689.217,248.109 683.937,245.901C678.657,243.693 674.193,240.693 670.545,236.901C666.897,233.109 664.137,228.813 662.265,224.013C660.393,219.213 659.457,214.221 659.457,209.037L659.457,206.013C659.457,200.637 660.441,195.525 662.409,190.677C664.377,185.829 667.209,181.509 670.905,177.717C674.601,173.925 679.089,170.949 684.369,168.789C689.649,166.629 695.601,165.549 702.225,165.549C708.849,165.549 714.801,166.629 720.081,168.789C725.361,170.949 729.849,173.925 733.545,177.717C737.241,181.509 740.049,185.829 741.969,190.677C743.889,195.525 744.849,200.637 744.849,206.013L744.849,209.037C744.849,214.221 743.913,219.213 742.041,224.013C740.169,228.813 737.409,233.109 733.761,236.901C730.113,240.693 725.649,243.693 720.369,245.901C715.089,248.109 709.041,249.213 702.225,249.213ZM702.225,232.077C707.121,232.077 711.249,230.997 714.609,228.837C717.969,226.677 720.513,223.749 722.241,220.053C723.969,216.357 724.833,212.157 724.833,207.453C724.833,202.653 723.945,198.405 722.169,194.709C720.393,191.013 717.801,188.085 714.393,185.925C710.985,183.765 706.929,182.685 702.225,182.685C697.521,182.685 693.465,183.765 690.057,185.925C686.649,188.085 684.033,191.013 682.209,194.709C680.385,198.405 679.473,202.653 679.473,207.453C679.473,212.157 680.361,216.357 682.137,220.053C683.913,223.749 686.481,226.677 689.841,228.837C693.201,230.997 697.329,232.077 702.225,232.077Z" style="fill:rgb(152,16,250);fill-rule:nonzero;"/>
                    </g>
                    <g transform="matrix(1,0,0,1,-22.5032,2.17953)">
                        <path d="M808.353,249.069C801.921,249.069 796.257,247.701 791.361,244.965C786.465,242.229 782.625,238.221 779.841,232.941C777.057,227.661 775.521,221.277 775.233,213.789L778.257,213.789L778.257,246.477L762.417,246.477L762.417,141.357L782.433,141.357L782.433,193.917L777.105,202.125C777.489,194.061 779.097,187.341 781.929,181.965C784.761,176.589 788.577,172.557 793.377,169.869C798.177,167.181 803.601,165.837 809.649,165.837C815.025,165.837 819.921,166.845 824.337,168.861C828.753,170.877 832.545,173.685 835.713,177.285C838.881,180.885 841.305,185.085 842.985,189.885C844.665,194.685 845.505,199.917 845.505,205.581L845.505,208.605C845.505,214.269 844.641,219.549 842.913,224.445C841.185,229.341 838.689,233.637 835.425,237.333C832.161,241.029 828.249,243.909 823.689,245.973C819.129,248.037 814.017,249.069 808.353,249.069ZM803.889,232.221C808.209,232.221 811.977,231.141 815.193,228.981C818.409,226.821 820.929,223.869 822.753,220.125C824.577,216.381 825.489,212.061 825.489,207.165C825.489,202.173 824.577,197.853 822.753,194.205C820.929,190.557 818.409,187.725 815.193,185.709C811.977,183.693 808.209,182.685 803.889,182.685C799.953,182.685 796.329,183.549 793.017,185.277C789.705,187.005 787.017,189.549 784.953,192.909C782.889,196.269 781.857,200.301 781.857,205.005L781.857,210.765C781.857,215.277 782.913,219.117 785.025,222.285C787.137,225.453 789.873,227.901 793.233,229.629C796.593,231.357 800.145,232.221 803.889,232.221Z" style="fill:rgb(152,16,250);fill-rule:nonzero;"/>
                    </g>
                    <g transform="matrix(1,0,0,1,-31.339,1.05674)">
                        <path d="M898.065,249.213C891.345,249.213 885.465,248.061 880.425,245.757C875.385,243.453 871.209,240.357 867.897,236.469C864.585,232.581 862.089,228.237 860.409,223.437C858.729,218.637 857.889,213.741 857.889,208.749L857.889,206.013C857.889,200.829 858.729,195.813 860.409,190.965C862.089,186.117 864.585,181.797 867.897,178.005C871.209,174.213 875.313,171.189 880.209,168.933C885.105,166.677 890.769,165.549 897.201,165.549C905.649,165.549 912.729,167.397 918.441,171.093C924.153,174.789 928.449,179.637 931.329,185.637C934.209,191.637 935.649,198.093 935.649,205.005L935.649,212.205L866.385,212.205L866.385,199.965L923.121,199.965L916.929,206.013C916.929,201.021 916.209,196.749 914.769,193.197C913.329,189.645 911.145,186.909 908.217,184.989C905.289,183.069 901.617,182.109 897.201,182.109C892.785,182.109 889.041,183.117 885.969,185.133C882.897,187.149 880.569,190.053 878.985,193.845C877.401,197.637 876.609,202.173 876.609,207.453C876.609,212.349 877.377,216.693 878.913,220.485C880.449,224.277 882.801,227.253 885.969,229.413C889.137,231.573 893.169,232.653 898.065,232.653C902.961,232.653 906.945,231.669 910.017,229.701C913.089,227.733 915.057,225.309 915.921,222.429L934.353,222.429C933.201,227.805 930.993,232.509 927.729,236.541C924.465,240.573 920.313,243.693 915.273,245.901C910.233,248.109 904.497,249.213 898.065,249.213Z" style="fill:rgb(152,16,250);fill-rule:nonzero;"/>
                    </g>
                    <g transform="matrix(1,0,0,1,-35.698,0.528371)">
                        <path d="M987.345,249.213C980.625,249.213 974.745,248.061 969.705,245.757C964.665,243.453 960.489,240.357 957.177,236.469C953.865,232.581 951.369,228.237 949.689,223.437C948.009,218.637 947.169,213.741 947.169,208.749L947.169,206.013C947.169,200.829 948.009,195.813 949.689,190.965C951.369,186.117 953.865,181.797 957.177,178.005C960.489,174.213 964.593,171.189 969.489,168.933C974.385,166.677 980.049,165.549 986.481,165.549C994.929,165.549 1002.01,167.397 1007.72,171.093C1013.43,174.789 1017.73,179.637 1020.61,185.637C1023.49,191.637 1024.93,198.093 1024.93,205.005L1024.93,212.205L955.665,212.205L955.665,199.965L1012.4,199.965L1006.21,206.013C1006.21,201.021 1005.49,196.749 1004.05,193.197C1002.61,189.645 1000.43,186.909 997.497,184.989C994.569,183.069 990.897,182.109 986.481,182.109C982.065,182.109 978.321,183.117 975.249,185.133C972.177,187.149 969.849,190.053 968.265,193.845C966.681,197.637 965.889,202.173 965.889,207.453C965.889,212.349 966.657,216.693 968.193,220.485C969.729,224.277 972.081,227.253 975.249,229.413C978.417,231.573 982.449,232.653 987.345,232.653C992.241,232.653 996.225,231.669 999.297,229.701C1002.37,227.733 1004.34,225.309 1005.2,222.429L1023.63,222.429C1022.48,227.805 1020.27,232.509 1017.01,236.541C1013.75,240.573 1009.59,243.693 1004.55,245.901C999.513,248.109 993.777,249.213 987.345,249.213Z" style="fill:rgb(152,16,250);fill-rule:nonzero;"/>
                    </g>
                </g>
            </g>
        </g>
    </g>
</svg>
